<?xml version="1.0" encoding="UTF-8" standalone="no"?>
<!-- Created with Inkscape (http://www.inkscape.org/) -->

<svg
   version="1.1"
   id="svg3525"
   xml:space="preserve"
   width="682.66669"
   height="682.66669"
   viewBox="0 0 682.66669 682.66669"
   xmlns="http://www.w3.org/2000/svg"
   xmlns:svg="http://www.w3.org/2000/svg"><defs
     id="defs3529"><clipPath
       clipPathUnits="userSpaceOnUse"
       id="clipPath3539"><path
         d="M 0,512 H 512 V 0 H 0 Z"
         id="path3537" /></clipPath></defs><g
     id="g3531"
     transform="matrix(1.3333333,0,0,-1.3333333,0,682.66667)"><g
       id="g3533"><g
         id="g3535"
         clip-path="url(#clipPath3539)"><g
           id="g3541"
           transform="translate(256,320.2666)"><path
             d="m 0,0 c 26.603,0 48.2,-21.602 48.2,-48.2 0,-26.598 -21.597,-48.2 -48.2,-48.2 -26.603,0 -48.2,21.602 -48.2,48.2 C -48.2,-21.602 -26.603,0 0,0 Z"
             style="fill:none;stroke:#4e2d6b;stroke-width:30;stroke-linecap:round;stroke-linejoin:round;stroke-miterlimit:10;stroke-dasharray:none;stroke-opacity:1"
             id="path3543" /></g><g
           id="g3545"
           transform="translate(55.167,497)"><path
             d="m 0,0 c 22.169,0 40.166,-17.994 40.166,-40.167 0,-22.172 -17.997,-40.166 -40.166,-40.166 -22.169,0 -40.167,17.994 -40.167,40.166 C -40.167,-17.994 -22.169,0 0,0 Z"
             style="fill:none;stroke:#4e2d6b;stroke-width:30;stroke-linecap:round;stroke-linejoin:round;stroke-miterlimit:10;stroke-dasharray:none;stroke-opacity:1"
             id="path3547" /></g><g
           id="g3549"
           transform="translate(456.833,95.333)"><path
             d="m 0,0 c 22.169,0 40.167,-17.994 40.167,-40.166 0,-22.173 -17.998,-40.167 -40.167,-40.167 -22.169,0 -40.166,17.994 -40.166,40.167 C -40.166,-17.994 -22.169,0 0,0 Z"
             style="fill:none;stroke:#4e2d6b;stroke-width:30;stroke-linecap:round;stroke-linejoin:round;stroke-miterlimit:10;stroke-dasharray:none;stroke-opacity:1"
             id="path3551" /></g><g
           id="g3553"
           transform="translate(440.7666,497)"><path
             d="m 0,0 c 31.036,0 56.233,-25.2 56.233,-56.233 0,-31.034 -25.197,-56.234 -56.233,-56.234 -31.036,0 -56.233,25.2 -56.233,56.234 C -56.233,-25.2 -31.036,0 0,0 Z"
             style="fill:none;stroke:#4e2d6b;stroke-width:30;stroke-linecap:round;stroke-linejoin:round;stroke-miterlimit:10;stroke-dasharray:none;stroke-opacity:1"
             id="path3555" /></g><g
           id="g3557"
           transform="translate(71.2334,127.4668)"><path
             d="m 0,0 c 31.036,0 56.233,-25.2 56.233,-56.233 0,-31.034 -25.197,-56.234 -56.233,-56.234 -31.036,0 -56.233,25.2 -56.233,56.234 C -56.233,-25.2 -31.036,0 0,0 Z"
             style="fill:none;stroke:#4e2d6b;stroke-width:30;stroke-linecap:round;stroke-linejoin:round;stroke-miterlimit:10;stroke-dasharray:none;stroke-opacity:1"
             id="path3559" /></g><g
           id="g3561"
           transform="translate(256,384.5332)"><path
             d="m 0,0 c 70.939,0 128.533,-57.591 128.533,-128.533 0,-70.943 -57.594,-128.533 -128.533,-128.533 -70.939,0 -128.533,57.59 -128.533,128.533 C -128.533,-57.591 -70.939,0 0,0 Z"
             style="fill:none;stroke:#4e2d6b;stroke-width:30;stroke-linecap:round;stroke-linejoin:round;stroke-miterlimit:10;stroke-dasharray:none;stroke-opacity:1"
             id="path3563" /></g><g
           id="g3565"
           transform="translate(110.9883,110.9902)"><path
             d="M 0,0 54.143,54.145"
             style="fill:none;stroke:#4e2d6b;stroke-width:30;stroke-linecap:round;stroke-linejoin:round;stroke-miterlimit:10;stroke-dasharray:none;stroke-opacity:1"
             id="path3567" /></g><g
           id="g3569"
           transform="translate(346.458,346.4551)"><path
             d="M 0,0 54.142,54.145"
             style="fill:none;stroke:#4e2d6b;stroke-width:30;stroke-linecap:round;stroke-linejoin:round;stroke-miterlimit:10;stroke-dasharray:none;stroke-opacity:1"
             id="path3571" /></g><g
           id="g3573"
           transform="translate(83.5625,428.4355)"><path
             d="M 0,0 81.568,-81.57"
             style="fill:none;stroke:#000000;stroke-width:30;stroke-linecap:round;stroke-linejoin:round;stroke-miterlimit:10;stroke-dasharray:none;stroke-opacity:1"
             id="path3575" /></g><g
           id="g3577"
           transform="translate(346.8691,165.1348)"><path
             d="M 0,0 81.568,-81.57"
             style="fill:none;stroke:#000000;stroke-width:30;stroke-linecap:round;stroke-linejoin:round;stroke-miterlimit:10;stroke-dasharray:none;stroke-opacity:1"
             id="path3579" /></g><g
           id="g3581"
           transform="translate(176.4912,155.0293)"><path
             d="m 0,0 c 2.464,17.062 10.371,32.984 22.699,45.315 15.063,15.063 35.492,23.522 56.794,23.522 h 0.031 c 21.302,0 41.732,-8.459 56.794,-23.522 C 148.646,32.984 156.554,17.062 159.018,0 137.135,-17.256 109.516,-27.562 79.509,-27.562 49.502,-27.562 21.883,-17.256 0,0 Z"
             style="fill:none;stroke:#000000;stroke-width:30;stroke-linecap:round;stroke-linejoin:round;stroke-miterlimit:10;stroke-dasharray:none;stroke-opacity:1"
             id="path3583" /></g></g></g></g></svg>
